<svg width="60" height="60" viewBox="0 0 60 60" fill="none" xmlns="http://www.w3.org/2000/svg">
<circle cx="30" cy="30" r="30" fill="white"/>
<path d="M45.9341 19.9247L45.8777 19.0075L44.9948 18.8457C38.816 17.7097 36.2366 16.8884 30.4707 14.2196L30 14L29.5293 14.2196C23.7634 16.8884 21.184 17.7097 15.0052 18.8457L14.1223 19.0075L14.0659 19.9247C13.7909 24.3978 14.3773 28.5657 15.811 32.3128C16.9849 35.3691 18.7224 38.1652 20.9283 40.5483C24.7477 44.7008 28.8028 46.5044 29.5764 46.8236L30.005 47L30.4336 46.8236C31.2072 46.5044 35.2623 44.7008 39.0817 40.5483C41.2841 38.1644 43.018 35.3683 44.189 32.3128C45.6227 28.5657 46.2091 24.3978 45.9341 19.9247ZM27.8685 35.7355L22.669 30.5121L24.2691 28.8388L27.7314 32.315L35.598 23.0041L37.3267 24.5369L27.8685 35.7355Z" fill="url(#paint0_linear)"/>
<defs>
<linearGradient id="paint0_linear" x1="30" y1="14" x2="30" y2="47" gradientUnits="userSpaceOnUse">
<stop stop-color="#298698"/>
<stop offset="1" stop-color="#003E53"/>
</linearGradient>
</defs>
</svg>
