<svg width="60" height="60" viewBox="0 0 60 60" fill="none" xmlns="http://www.w3.org/2000/svg">
<circle cx="30" cy="30" r="30" fill="white"/>
<path d="M15.1429 19.9807H42.6071V16.1638C42.6072 15.9916 42.5696 15.8215 42.4973 15.6659C42.425 15.5103 42.3196 15.3729 42.1888 15.2637C42.058 15.1546 41.9051 15.0763 41.741 15.0346C41.5769 14.9929 41.4058 14.9888 41.24 15.0226L14.9543 19.4214C14.7586 19.4611 14.5764 19.5522 14.4261 19.6858C14.2757 19.8194 14.1623 19.9908 14.0971 20.1829C14.4301 20.0489 14.7849 19.9802 15.1429 19.9807Z" fill="url(#paint0_linear)"/>
<path d="M44.8571 21.7262H15.1429C14.8398 21.7262 14.5491 21.8488 14.3347 22.067C14.1204 22.2853 14 22.5812 14 22.8899V43.8363C14 44.1449 14.1204 44.4409 14.3347 44.6592C14.5491 44.8774 14.8398 45 15.1429 45H44.8571C45.1602 45 45.4509 44.8774 45.6653 44.6592C45.8796 44.4409 46 44.1449 46 43.8363V22.8899C46 22.5812 45.8796 22.2853 45.6653 22.067C45.4509 21.8488 45.1602 21.7262 44.8571 21.7262ZM38.0357 35.6905C37.5836 35.6905 37.1417 35.554 36.7658 35.2982C36.39 35.0425 36.097 34.679 35.924 34.2537C35.751 33.8285 35.7057 33.3605 35.7939 32.909C35.8821 32.4576 36.0998 32.0429 36.4195 31.7174C36.7391 31.3919 37.1464 31.1702 37.5898 31.0804C38.0332 30.9906 38.4928 31.0367 38.9104 31.2129C39.3281 31.389 39.6851 31.6873 39.9362 32.0701C40.1874 32.4528 40.3214 32.9028 40.3214 33.3631C40.3214 33.9804 40.0806 34.5723 39.652 35.0088C39.2233 35.4453 38.6419 35.6905 38.0357 35.6905Z" fill="url(#paint1_linear)"/>
<defs>
<linearGradient id="paint0_linear" x1="30" y1="15" x2="30" y2="45" gradientUnits="userSpaceOnUse">
<stop stop-color="#298698"/>
<stop offset="1" stop-color="#003E53"/>
</linearGradient>
<linearGradient id="paint1_linear" x1="30" y1="15" x2="30" y2="45" gradientUnits="userSpaceOnUse">
<stop stop-color="#298698"/>
<stop offset="1" stop-color="#003E53"/>
</linearGradient>
</defs>
</svg>
