<svg width="60" height="60" viewBox="0 0 60 60" fill="none" xmlns="http://www.w3.org/2000/svg">
<circle cx="30" cy="30" r="30" fill="white"/>
<path d="M43.7141 34.0305C43.7691 33.9513 43.822 33.8691 43.8763 33.792C45.2577 31.7388 45.997 29.321 45.9998 26.8463C46.0227 19.7535 40.0384 14 32.6385 14C26.1843 14 20.8 18.3921 19.5386 24.2228C19.3494 25.0869 19.2536 25.9689 19.2529 26.8535C19.2529 33.9534 25.0071 39.8612 32.4071 39.8612C33.5835 39.8612 35.1685 39.5076 36.0378 39.2691C36.907 39.0305 37.7685 38.7155 37.9913 38.6305C38.2142 38.5455 38.5627 38.4584 38.8406 38.5384L44.3705 40.1369C44.4192 40.1513 44.4707 40.1525 44.52 40.1403C44.5692 40.1282 44.6143 40.1031 44.6506 40.0678C44.687 40.0325 44.7133 39.9881 44.7268 39.9392C44.7404 39.8904 44.7407 39.8388 44.7277 39.7898L43.462 34.9691C43.3741 34.612 43.3627 34.5448 43.7141 34.0305Z" fill="url(#paint0_linear)"/>
<path d="M34.0385 41.3841C33.4888 41.472 32.9336 41.5209 32.3771 41.5305C29.3464 41.5305 26.4843 40.7305 24.1629 39.2305C22.6779 38.3191 21.3889 37.1216 20.3707 35.7077C18.5079 33.2384 17.4922 30.0999 17.4922 26.8156C17.4922 26.592 17.5001 26.377 17.5079 26.1613C17.5107 26.0977 17.4939 26.0348 17.4597 25.9811C17.4255 25.9273 17.3756 25.8855 17.3167 25.8611C17.2579 25.8368 17.193 25.8311 17.1308 25.845C17.0687 25.8588 17.0123 25.8915 16.9693 25.9385C15.259 27.8098 14.2251 30.2003 14.0327 32.7282C13.8403 35.256 14.5005 37.7754 15.9079 39.8841C16.0843 40.1534 16.1843 40.3612 16.1536 40.4998L15.1472 45.6612C15.1379 45.7103 15.1417 45.7609 15.1581 45.8081C15.1745 45.8553 15.203 45.8973 15.2407 45.9301C15.2784 45.9628 15.3241 45.9851 15.3731 45.9947C15.4221 46.0043 15.4728 46.0008 15.5201 45.9847L20.3772 44.2533C20.5245 44.1951 20.6818 44.1665 20.8402 44.1692C20.9985 44.1719 21.1548 44.2058 21.3 44.269C22.7536 44.8405 24.3614 45.1919 25.9693 45.1919C29.0641 45.202 32.0452 44.0262 34.2999 41.9062C34.3465 41.8608 34.3774 41.8018 34.3882 41.7377C34.399 41.6736 34.3891 41.6077 34.36 41.5496C34.3309 41.4915 34.2841 41.4441 34.2263 41.4143C34.1685 41.3846 34.1027 41.374 34.0385 41.3841Z" fill="url(#paint1_linear)"/>
<defs>
<linearGradient id="paint0_linear" x1="29.9999" y1="14" x2="29.9999" y2="46" gradientUnits="userSpaceOnUse">
<stop stop-color="#298698"/>
<stop offset="1" stop-color="#003E53"/>
</linearGradient>
<linearGradient id="paint1_linear" x1="29.9999" y1="14" x2="29.9999" y2="46" gradientUnits="userSpaceOnUse">
<stop stop-color="#298698"/>
<stop offset="1" stop-color="#003E53"/>
</linearGradient>
</defs>
</svg>
