<svg width="60" height="60" viewBox="0 0 60 60" fill="none" xmlns="http://www.w3.org/2000/svg">
<circle cx="30" cy="30" r="30" fill="white"/>
<path fill-rule="evenodd" clip-rule="evenodd" d="M19.014 13.0694L19.1632 13.0758C19.4849 13.1045 19.8398 13.2235 20.0681 13.3142L31.2065 41.9584C31.5558 42.8567 31.6569 43.8284 31.4997 44.7766C31.3596 45.6216 30.8319 46.3586 30.0657 46.7791L29.7896 46.9307H18.279C18.1809 46.9307 18.099 46.8539 18.099 46.7525V13.2696C18.3617 13.1735 18.7149 13.0718 19.014 13.0694ZM20.689 44.6709C20.689 44.3756 20.935 44.1362 21.2385 44.1362H25.6652C25.9687 44.1362 26.2147 44.3756 26.2147 44.6709C26.2147 44.9662 25.9687 45.2055 25.6652 45.2055H21.2385C20.935 45.2055 20.689 44.9662 20.689 44.6709Z" fill="url(#paint0_linear)"/>
<path d="M31.6069 46.9307C32.1167 46.3813 32.4607 45.6947 32.5847 44.9468C32.7724 43.814 32.6516 42.6532 32.2343 41.58L21.1842 13.1628L34.8807 13.7523L46.6221 41.7726C46.8832 42.3957 46.9631 43.0768 46.8529 43.7411C46.7088 44.6103 46.25 45.3953 45.5682 45.9647C45.2662 46.2169 44.8337 46.3369 44.3237 46.3611L32.2923 46.9307H31.6069Z" fill="url(#paint1_linear)"/>
<defs>
<linearGradient id="paint0_linear" x1="32.5" y1="12" x2="32.5" y2="48" gradientUnits="userSpaceOnUse">
<stop stop-color="#298698"/>
<stop offset="1" stop-color="#003E53"/>
</linearGradient>
<linearGradient id="paint1_linear" x1="32.5" y1="12" x2="32.5" y2="48" gradientUnits="userSpaceOnUse">
<stop stop-color="#298698"/>
<stop offset="1" stop-color="#003E53"/>
</linearGradient>
</defs>
</svg>
