<svg id="iPhone_X_Flat_Mockup_Free" data-name="iPhone X Flat Mockup Free" xmlns="http://www.w3.org/2000/svg" width="1000" height="1970" viewBox="0 0 1000 1970">
  <metadata><?xpacket begin="﻿" id="W5M0MpCehiHzreSzNTczkc9d"?>
<x:xmpmeta xmlns:x="adobe:ns:meta/" x:xmptk="Adobe XMP Core 5.6-c142 79.160924, 2017/07/13-01:06:39        ">
   <rdf:RDF xmlns:rdf="http://www.w3.org/1999/02/22-rdf-syntax-ns#">
      <rdf:Description rdf:about=""/>
   </rdf:RDF>
</x:xmpmeta>
                                                                                                    
                                                                                                    
                                                                                                    
                                                                                                    
                                                                                                    
                                                                                                    
                                                                                                    
                                                                                                    
                                                                                                    
                                                                                                    
                                                                                                    
                                                                                                    
                                                                                                    
                                                                                                    
                                                                                                    
                                                                                                    
                                                                                                    
                                                                                                    
                                                                                                    
                                                                                                    
                           
<?xpacket end="w"?></metadata>
<defs>
    <style>
      .cls-1 {
        fill: #34353a;
      }

      .cls-1, .cls-2, .cls-3, .cls-4 {
        fill-rule: evenodd;
      }

      .cls-2 {
        fill: #212227;
      }

      .cls-3 {
        fill: #18171c;
      }

      .cls-4 {
        fill: #141318;
      }
    </style>
  </defs>
  <g id="iPhone_X" data-name="iPhone X">
    <g id="Buttons">
      <path id="power" class="cls-1" d="M983.719,455.753l4.185,1.975a1.907,1.907,0,0,1,1.1,1.723v220.01a2.118,2.118,0,0,1-1.239,1.924l-5.659,2.6h-8.118v-229h6.327A7.986,7.986,0,0,1,983.719,455.753Z"/>
      <path id="minus" class="cls-1" d="M16.585,587.754l-3.445,1.969a2.316,2.316,0,0,0-1.17,2.01V726.567a2.035,2.035,0,0,0,1.25,1.874l5.252,2.2a4.167,4.167,0,0,0,1.608.324h9.884V586.964h-10.4A6,6,0,0,0,16.585,587.754Z"/>
      <path id="plus" class="cls-1" d="M18.135,406.518l-5.128,2.812a1.908,1.908,0,0,0-1,1.669V547.267a1.768,1.768,0,0,0,.963,1.566l5.49,2.849a2.952,2.952,0,0,0,1.361.332h5.172V405.989H20.2A4.3,4.3,0,0,0,18.135,406.518Z"/>
      <path id="mute" class="cls-1" d="M17.481,269H15.458a2.673,2.673,0,0,0-1.855.742l-1.573,1.517a2.489,2.489,0,0,0-.768,1.791v67.894a2.485,2.485,0,0,0,.768,1.79l0.543,0.524a2.674,2.674,0,0,0,1.855.741h5.137a2.578,2.578,0,0,0,2.624-2.531V271.532A2.579,2.579,0,0,0,19.565,269H17.481Z"/>
    </g>
    <g id="Placeholders">
      <path id="placeholder" class="cls-2" d="M984,849h0v948c0,127.71-78.625,167-167,167H560.142c-3.071,0-6.122.52-9.043-.43l-2.3-.75a28.814,28.814,0,0,0-8.885-1.4H461.184a27.727,27.727,0,0,0-8.574,1.35l-1.673.55c-3.438,1.11-7.03.68-10.645,0.68H184c-88.376,0-167-39.29-167-167V736.481h0V581.573h0V558.257h0V401.829h0V349.634h0V172C17,44.292,95.625,5,184,5H817c88.376,0,167,39.292,167,167v62h0V849Z"/>
      <path id="placeholder-2" data-name="placeholder" class="cls-1" d="M930.246,43.556C902.945,20.626,864.675,9,816.5,9h-633C135.325,9,97.055,20.626,69.754,43.556,37.4,70.727,21,113.774,21,171.5v1625c0,57.73,16.4,100.77,48.754,127.94,27.3,22.93,65.571,34.56,113.746,34.56h633c48.176,0,86.446-11.63,113.747-34.56C962.6,1897.27,979,1854.23,979,1796.5V171.5C979,113.774,962.6,70.727,930.246,43.556Z"/>
      <path id="placeholder-3" data-name="placeholder" class="cls-3" d="M921.207,54.128C896.219,33.141,860.654,22.5,815.5,22.5h-630c-45.154,0-80.72,10.641-105.708,31.628C50.4,78.812,35.5,118.639,35.5,172.5v1622c0,53.86,14.9,93.69,44.292,118.37,24.988,20.99,60.553,31.63,105.708,31.63h630c45.155,0,80.72-10.64,105.708-31.63,29.391-24.68,44.293-64.51,44.293-118.37V172.5C965.5,118.639,950.6,78.812,921.207,54.128Z"/>
      <path id="placeholder-4" data-name="placeholder" class="cls-2" d="M962,1796c0,52.31-14.3,90.85-42.509,114.54C895.429,1930.75,860.945,1941,817,1941H184c-43.947,0-78.43-10.25-102.493-30.46C53.3,1886.85,39,1848.31,39,1796V171c0-52.318,14.3-90.857,42.509-114.546C105.571,36.247,140.054,26,184,26H817c43.947,0,78.43,10.247,102.493,30.457C947.7,80.146,962,118.685,962,171V1796Z"/>
      <path id="placeholder-5" data-name="placeholder" class="cls-4" d="M942.669,1803.07c0,65.97-27.07,119.59-115.584,119.59H173.872c-88.514,0-115.584-53.62-115.584-119.59V162.586C58.288,96.617,85.358,43,173.872,43H827.085C915.6,43,942.669,96.617,942.669,162.586V1803.07Z"/>
    </g>
  </g>
</svg>
