<svg width="60" height="60" viewBox="0 0 60 60" fill="none" xmlns="http://www.w3.org/2000/svg">
<circle cx="30" cy="30" r="30" fill="white"/>
<path fill-rule="evenodd" clip-rule="evenodd" d="M25.3043 21.1594C25.3043 25.1054 22.1054 28.3043 18.1594 28.3043C17.9323 28.3043 17.7077 28.2937 17.4861 28.273C16.6417 28.1941 15.8401 27.9683 15.1069 27.6213C14.8473 28.7516 14.7101 29.9286 14.7101 31.1377C14.7101 39.7781 21.7146 46.7826 30.3551 46.7826C38.9955 46.7826 46 39.7781 46 31.1377C46 22.4972 38.9955 15.4928 30.3551 15.4928C28.0486 15.4928 25.8587 15.9919 23.8875 16.888C24.3775 17.544 24.7574 18.2871 25 19.0897C25.1979 19.7449 25.3043 20.4397 25.3043 21.1594ZM23.9637 34.7101V32.4884H25.1027C25.8505 32.4884 26.4352 32.3108 26.8567 31.9557C27.2811 31.5977 27.4933 31.1098 27.4933 30.4919C27.4933 30.0848 27.3966 29.7224 27.2032 29.4049C27.0097 29.0844 26.7326 28.8375 26.3716 28.6643C26.0136 28.491 25.5979 28.4044 25.1244 28.4044H22.6644V34.7101H23.9637ZM29.6891 32.4018H30.7241L31.9065 34.7101H33.301V34.6495L31.9368 32.0727C32.315 31.9023 32.5965 31.6742 32.7813 31.3884C32.969 31.0997 33.0628 30.7402 33.0628 30.31C33.0628 29.7037 32.8607 29.2345 32.4565 28.9025C32.0523 28.5704 31.4777 28.4044 30.7328 28.4044H28.3898V34.7101H29.6891V32.4018ZM37.7271 28.4044L36.2979 33.1467L34.8774 28.4044H33.4352L35.6223 34.7101H36.9779L39.1736 28.4044H37.7271Z" fill="url(#paint0_linear)"/>
<path d="M23.9637 31.436H25.1244C25.4679 31.436 25.7292 31.3552 25.9082 31.1935C26.0901 31.0318 26.1811 30.8008 26.1811 30.5006C26.1811 30.1916 26.0901 29.9419 25.9082 29.7513C25.7264 29.5608 25.4752 29.4626 25.1547 29.4568H23.9637V31.436Z" fill="url(#paint1_linear)"/>
<path d="M29.6891 31.3494H30.7371C31.0634 31.3494 31.316 31.2671 31.495 31.1025C31.674 30.9351 31.7635 30.7056 31.7635 30.4139C31.7635 30.1166 31.6784 29.8827 31.508 29.7123C31.3406 29.542 31.0822 29.4568 30.7328 29.4568H29.6891V31.3494Z" fill="url(#paint2_linear)"/>
<path fill-rule="evenodd" clip-rule="evenodd" d="M24.3188 21.1594C24.3188 24.5612 21.5612 27.3188 18.1594 27.3188C18.0184 27.3188 17.8785 27.3141 17.7398 27.3048C16.8888 27.2475 16.085 27.0174 15.3635 26.6492C13.3671 25.6304 12 23.5546 12 21.1594C12 17.7577 14.7577 15 18.1594 15C20.1153 15 21.8582 15.9116 22.9865 17.3332C23.4956 17.9745 23.8795 18.7196 24.1014 19.5316C24.2432 20.0501 24.3188 20.5959 24.3188 21.1594ZM18.4058 18.2029H17.6667V20.913H14.9565V21.6522H17.6667V24.3623H18.4058V21.6522H21.1159V20.913H18.4058V18.2029Z" fill="url(#paint3_linear)"/>
<defs>
<linearGradient id="paint0_linear" x1="29" y1="15" x2="29" y2="46.7826" gradientUnits="userSpaceOnUse">
<stop stop-color="#298698"/>
<stop offset="1" stop-color="#003E53"/>
</linearGradient>
<linearGradient id="paint1_linear" x1="29" y1="15" x2="29" y2="46.7826" gradientUnits="userSpaceOnUse">
<stop stop-color="#298698"/>
<stop offset="1" stop-color="#003E53"/>
</linearGradient>
<linearGradient id="paint2_linear" x1="29" y1="15" x2="29" y2="46.7826" gradientUnits="userSpaceOnUse">
<stop stop-color="#298698"/>
<stop offset="1" stop-color="#003E53"/>
</linearGradient>
<linearGradient id="paint3_linear" x1="29" y1="15" x2="29" y2="46.7826" gradientUnits="userSpaceOnUse">
<stop stop-color="#298698"/>
<stop offset="1" stop-color="#003E53"/>
</linearGradient>
</defs>
</svg>
