<svg width="170" height="170" viewBox="0 0 170 170" fill="none" xmlns="http://www.w3.org/2000/svg">
<g clip-path="url(#clip0)">
<path d="M35 55.6489V116.061L83.455 145.681V88.5515L35 55.6489Z" fill="url(#paint0_linear)"/>
<path d="M83.5597 88.5515V145.681L137.485 116.061V55.6489L83.5597 88.5515Z" fill="url(#paint1_linear)"/>
<path d="M35.0009 55.6517L83.2995 88.5542L137.382 55.7298L87.3635 23.9996L35.0009 55.6517Z" fill="url(#paint2_linear)"/>
<path d="M83.5597 88.5621V89.7344L137.407 56.8319L137.329 55.8159L83.5597 88.5621Z" fill="url(#paint3_linear)"/>
<path d="M83.5504 88.5514V89.7237L35.0955 56.8212V55.6489L83.5504 88.5514Z" fill="url(#paint4_linear)"/>
<path d="M84.3412 89.1111L83.5597 89.2674V145.694L84.3412 145.303V89.1111Z" fill="url(#paint5_linear)"/>
<path opacity="0.35" d="M137.5 55.6906V115.691L206.775 72.1072L159.5 42.6906L137.5 55.6906Z" fill="url(#paint6_linear)"/>
<path opacity="0.35" d="M87.4935 23.8812L137.119 55.7906L176.5 34L127.372 1.67824L87.4935 23.8812Z" fill="url(#paint7_linear)"/>
<path d="M139.586 62.2052C140.233 62.2052 140.758 61.6804 140.758 61.0329C140.758 60.3855 140.233 59.8606 139.586 59.8606C138.939 59.8606 138.414 60.3855 138.414 61.0329C138.414 61.6804 138.939 62.2052 139.586 62.2052Z" fill="#2BCACA"/>
<path d="M112.281 16.8725C112.496 16.8725 112.67 16.6984 112.67 16.4837C112.67 16.269 112.496 16.095 112.281 16.095C112.066 16.095 111.892 16.269 111.892 16.4837C111.892 16.6984 112.066 16.8725 112.281 16.8725Z" fill="#2BCACA"/>
<path d="M161.761 19.1415C162.062 19.1415 162.306 18.8973 162.306 18.596C162.306 18.2948 162.062 18.0505 161.761 18.0505C161.459 18.0505 161.215 18.2948 161.215 18.596C161.215 18.8973 161.459 19.1415 161.761 19.1415Z" fill="#1F898D"/>
<path d="M148.214 52.9856C148.515 52.9856 148.759 52.7413 148.759 52.4401C148.759 52.1388 148.515 51.8945 148.214 51.8945C147.912 51.8945 147.668 52.1388 147.668 52.4401C147.668 52.7413 147.912 52.9856 148.214 52.9856Z" fill="white"/>
<path d="M157.754 41.8712C158.055 41.8712 158.299 41.627 158.299 41.3257C158.299 41.0245 158.055 40.7803 157.754 40.7803C157.452 40.7803 157.208 41.0245 157.208 41.3257C157.208 41.627 157.452 41.8712 157.754 41.8712Z" fill="#2BCACA"/>
<path d="M155.178 80.1748C155.479 80.1748 155.723 79.9306 155.723 79.6293C155.723 79.3281 155.479 79.0839 155.178 79.0839C154.876 79.0839 154.632 79.3281 154.632 79.6293C154.632 79.9306 154.876 80.1748 155.178 80.1748Z" fill="white"/>
<path d="M105.092 66.4133C105.393 66.4133 105.637 66.1691 105.637 65.8678C105.637 65.5665 105.393 65.3223 105.092 65.3223C104.791 65.3223 104.546 65.5665 104.546 65.8678C104.546 66.1691 104.791 66.4133 105.092 66.4133Z" fill="white"/>
<path d="M123.218 60.785C123.52 60.785 123.764 60.5408 123.764 60.2394C123.764 59.9381 123.52 59.6938 123.218 59.6938C122.917 59.6938 122.673 59.9381 122.673 60.2394C122.673 60.5408 122.917 60.785 123.218 60.785Z" fill="white"/>
<path d="M114.823 42.9684C115.124 42.9684 115.368 42.7242 115.368 42.4229C115.368 42.1216 115.124 41.8773 114.823 41.8773C114.522 41.8773 114.277 42.1216 114.277 42.4229C114.277 42.7242 114.522 42.9684 114.823 42.9684Z" fill="white"/>
<path d="M103.184 28.1333C103.485 28.1333 103.729 27.8891 103.729 27.5878C103.729 27.2865 103.485 27.0422 103.184 27.0422C102.883 27.0422 102.638 27.2865 102.638 27.5878C102.638 27.8891 102.883 28.1333 103.184 28.1333Z" fill="#1F898D"/>
<path d="M108.049 58.9958C108.351 58.9958 108.595 58.7517 108.595 58.4504C108.595 58.1491 108.351 57.9049 108.049 57.9049C107.748 57.9049 107.504 58.1491 107.504 58.4504C107.504 58.7517 107.748 58.9958 108.049 58.9958Z" fill="#1F898D"/>
<path d="M140.626 21.6394C141.057 21.6394 141.406 21.2899 141.406 20.8588C141.406 20.4277 141.057 20.0782 140.626 20.0782C140.195 20.0782 139.845 20.4277 139.845 20.8588C139.845 21.2899 140.195 21.6394 140.626 21.6394Z" fill="#1F898D"/>
<path d="M128.632 44.0656C129.237 44.0656 129.727 43.5757 129.727 42.9714C129.727 42.3672 129.237 41.8773 128.632 41.8773C128.028 41.8773 127.538 42.3672 127.538 42.9714C127.538 43.5757 128.028 44.0656 128.632 44.0656Z" fill="#1F898D"/>
<path d="M104.21 83.2996C104.814 83.2996 105.304 82.8097 105.304 82.2054C105.304 81.6012 104.814 81.1113 104.21 81.1113C103.606 81.1113 103.116 81.6012 103.116 82.2054C103.116 82.8097 103.606 83.2996 104.21 83.2996Z" fill="white"/>
<path d="M168.511 66.9622C169.115 66.9622 169.605 66.4723 169.605 65.868C169.605 65.2637 169.115 64.7738 168.511 64.7738C167.906 64.7738 167.417 65.2637 167.417 65.868C167.417 66.4723 167.906 66.9622 168.511 66.9622Z" fill="white"/>
</g>
<defs>
<linearGradient id="paint0_linear" x1="33.9893" y1="114.173" x2="82.4413" y2="88.241" gradientUnits="userSpaceOnUse">
<stop stop-color="#1FB2A9"/>
<stop offset="0.75" stop-color="#2BCACA"/>
<stop offset="1" stop-color="#32DADA"/>
</linearGradient>
<linearGradient id="paint1_linear" x1="90.9842" y1="81.1269" x2="131.702" y2="121.845" gradientUnits="userSpaceOnUse">
<stop stop-color="#99F9FF"/>
<stop offset="0.1701" stop-color="#7BEBF2"/>
<stop offset="0.4158" stop-color="#55DAE3"/>
<stop offset="0.6441" stop-color="#3ACED7"/>
<stop offset="0.8458" stop-color="#2AC6D0"/>
<stop offset="1" stop-color="#24C4CE"/>
</linearGradient>
<linearGradient id="paint2_linear" x1="71.0732" y1="79.3576" x2="103.183" y2="29.0907" gradientUnits="userSpaceOnUse">
<stop stop-color="#48DDE6"/>
<stop offset="0.0585" stop-color="#45E4E4"/>
<stop offset="0.6415" stop-color="#2DD4D4"/>
<stop offset="1" stop-color="#24CECE"/>
</linearGradient>
<linearGradient id="paint3_linear" x1="104.896" y1="67.2263" x2="115.954" y2="78.285" gradientUnits="userSpaceOnUse">
<stop stop-color="white"/>
<stop offset="0.2713" stop-color="#BAF9FD"/>
<stop offset="0.5184" stop-color="#83FBFB"/>
<stop offset="0.7299" stop-color="#5BF0F9"/>
<stop offset="0.8974" stop-color="#43F8F8"/>
<stop offset="1" stop-color="#3AEDF8"/>
</linearGradient>
<linearGradient id="paint4_linear" x1="63.4951" y1="68.514" x2="55.1596" y2="76.8496" gradientUnits="userSpaceOnUse">
<stop stop-color="white"/>
<stop offset="0.2713" stop-color="#BAFDFD"/>
<stop offset="0.5184" stop-color="#83FBFB"/>
<stop offset="0.7299" stop-color="#5BF0F9"/>
<stop offset="0.8974" stop-color="#43EDF8"/>
<stop offset="1" stop-color="#3AEDF8"/>
</linearGradient>
<linearGradient id="paint5_linear" x1="69.6873" y1="103.14" x2="98.0959" y2="131.549" gradientUnits="userSpaceOnUse">
<stop stop-color="white"/>
<stop offset="0.2713" stop-color="#BAF9FD"/>
<stop offset="0.5184" stop-color="#83FBFB"/>
<stop offset="0.7299" stop-color="#5BF0F9"/>
<stop offset="0.8974" stop-color="#43EDF8"/>
<stop offset="1" stop-color="#3AEDF8"/>
</linearGradient>
<linearGradient id="paint6_linear" x1="168.5" y1="68.5" x2="130.474" y2="83.7391" gradientUnits="userSpaceOnUse">
<stop stop-color="#E2FDFF" stop-opacity="0.22"/>
<stop offset="1" stop-color="#1F898D"/>
</linearGradient>
<linearGradient id="paint7_linear" x1="172.5" y1="29.0003" x2="144.163" y2="70.895" gradientUnits="userSpaceOnUse">
<stop offset="0.189095" stop-color="#EEF9FA" stop-opacity="0.3"/>
<stop offset="1" stop-color="#1F898D"/>
</linearGradient>
<clipPath id="clip0">
<rect width="170" height="170" fill="white"/>
</clipPath>
</defs>
</svg>
